<?xml version="1.0" encoding="UTF-8"?>
<svg id="Camada_2" data-name="Camada 2" xmlns="http://www.w3.org/2000/svg" viewBox="0 0 77.57 77.57">
  <defs>
    <style>
      .cls-1 {
        fill: #4dad33;
      }

      .cls-2 {
        fill: #3253a0;
      }

      .cls-3 {
        fill: none;
      }

      .cls-4 {
        fill: #e52521;
      }

      .cls-5 {
        fill: #ffd004;
      }

      .cls-6 {
        fill: #010101;
      }
    </style>
  </defs>
  <g id="Camada_1-2" data-name="Camada 1">
    <g>
      <polygon class="cls-3" points="26.69 58.58 28.99 57.57 26.69 58.58 26.69 58.58"/>
      <polygon class="cls-3" points="31.45 56.5 31.45 56.5 28.99 57.57 31.45 56.5"/>
      <polygon class="cls-3" points="18.99 50.88 18.28 50.6 19 50.89 20.59 47.22 18.99 50.88"/>
      <path class="cls-3" d="M19.99,51.27l-.99-.39-.45,1.01-2.12,4.88-1.75,4c-.26.66-.15,1.25.34,1.74,0,0,.02.02.03.03,0,0,.02.02.03.03.49.49,1.07.6,1.74.33l4-1.74,4.87-2.12,1.02-.45-.39-.99c-1.14-2.89-3.42-5.17-6.31-6.31Z"/>
      <path class="cls-3" d="M34.33,60.91l-.98.42.4,1.03,1.94,4.95,1.59,4.06c.29.66.77.99,1.46.99.01,0,.03,0,.04,0,.01,0,.03,0,.04,0,.69,0,1.17-.34,1.46-.99l1.59-4.06,1.94-4.95.4-1.03h0s0,0,0,0l-.98-.42c-2.84-1.24-6.07-1.24-8.92,0Z"/>
      <polygon class="cls-3" points="33.35 61.34 31.88 61.97 33.35 61.33 32.2 58.42 33.35 61.34"/>
      <polygon class="cls-3" points="28.59 14.16 28.59 14.16 28.51 14.35 27 18.21 28.52 14.35 28.59 14.16"/>
      <rect class="cls-3" x="20.03" y="26.47" width="0" height="5.2" transform="translate(-9.97 10.46) rotate(-23.62)"/>
      <rect class="cls-3" x="42.58" y="58.92" width="5.19" height="0" transform="translate(-26.16 79.48) rotate(-68.6)"/>
      <path class="cls-3" d="M16.66,34.33l-.42-.99-1.04.4-4.94,1.94-4.06,1.6c-.66.28-.99.77-.99,1.46,0,.01,0,.03,0,.04,0,.01,0,.02,0,.04,0,.68.33,1.17.99,1.46l4.06,1.59,4.94,1.94,1.04.4.42-.98c1.24-2.84,1.24-6.07,0-8.92Z"/>
      <polygon class="cls-3" points="21.07 46.13 21.07 46.12 19.15 45.37 21.07 46.13"/>
      <polygon class="cls-3" points="16.24 33.34 16.24 33.34 18.57 32.43 16.24 33.34"/>
      <polygon class="cls-3" points="16.24 44.23 19.15 45.37 16.24 44.22 16.24 44.23"/>
      <polygon class="cls-3" points="61.34 33.34 56.72 31.54 61.34 33.34 61.34 33.34"/>
      <polygon class="cls-3" points="62.53 30.61 61.34 33.34 61.34 33.34 62.53 30.61"/>
      <path class="cls-3" d="M60.91,43.24l.43.98,1.03-.4,4.94-1.94,4.07-1.59c.66-.29.99-.78.99-1.46,0-.02,0-.03,0-.04,0-.01,0-.03,0-.04,0-.69-.33-1.18-.99-1.46l-4.07-1.6-4.94-1.94-1.03-.4-.43.98c-1.24,2.84-1.24,6.08,0,8.92Z"/>
      <polygon class="cls-3" points="56.5 31.45 56.5 31.45 56.72 31.54 56.5 31.45"/>
      <polygon class="cls-3" points="50.89 18.99 50.89 18.99 48.52 20.02 50.89 18.99"/>
      <polygon class="cls-3" points="27 18.21 26.69 18.99 26.69 18.99 27 18.21"/>
      <rect class="cls-3" x="57.54" y="45.91" width="0" height="5.19" transform="translate(-14.61 27.12) rotate(-23.62)"/>
      <polygon class="cls-3" points="63.41 28.58 63.36 28.7 63.42 28.58 63.33 28.55 63.41 28.58"/>
      <polygon class="cls-3" points="60.76 50.03 58.58 50.88 58.58 50.89 60.76 50.03"/>
      <path class="cls-3" d="M51.27,57.58l-.39.99,1.02.45,4.87,2.12,4,1.75c.67.26,1.25.15,1.74-.34.01,0,.02-.02.03-.03l.03-.03c.49-.49.6-1.07.34-1.74l-1.74-4-2.13-4.87-.44-1.02-1,.39c-2.89,1.14-5.17,3.42-6.31,6.31Z"/>
      <polygon class="cls-3" points="49.03 63.31 49.06 63.22 50.47 59.65 49.06 63.22 49.03 63.31"/>
      <polygon class="cls-3" points="50.88 58.58 50.89 58.58 48.32 57.46 50.88 58.58"/>
      <polygon class="cls-3" points="50.88 58.58 50.88 58.58 50.47 59.65 50.88 58.58"/>
      <polygon class="cls-3" points="48.99 63.41 49.03 63.31 48.98 63.41 48.99 63.41"/>
      <path class="cls-3" d="M26.3,19.98l.39-.99-1.02-.44-4.87-2.13-4-1.74c-.67-.26-1.25-.15-1.74.34,0,0-.02.01-.03.03,0,0-.02.01-.03.03-.49.49-.6,1.07-.34,1.74l1.75,4,2.12,4.87.44,1.01h0s0,0,0,0l1-.39c2.89-1.14,5.17-3.42,6.31-6.31Z"/>
      <polygon class="cls-3" points="18.28 50.6 14.35 49.06 14.17 48.98 14.16 48.99 14.35 49.06 18.28 50.6"/>
      <polygon class="cls-3" points="16.24 33.34 16.24 33.34 14.24 28.77 14.17 28.58 14.16 28.58 14.24 28.77 16.24 33.34"/>
      <polygon class="cls-3" points="28.77 14.24 31.81 15.56 28.78 14.24 28.59 14.16 28.59 14.16 28.77 14.24"/>
      <polygon class="cls-3" points="48.99 14.16 48.98 14.16 48.87 14.21 48.99 14.16"/>
      <polygon class="cls-3" points="31.88 61.97 28.77 63.33 28.59 63.41 28.59 63.41 28.77 63.33 31.88 61.97"/>
      <polygon class="cls-3" points="61.34 44.22 59.23 45.05 61.34 44.23 63.33 48.8 63.41 48.98 63.38 49 63.42 48.98 63.34 48.8 61.34 44.22"/>
      <polygon class="cls-3" points="48.9 63.37 48.98 63.41 48.98 63.41 48.9 63.37"/>
      <polygon class="cls-3" points="58.58 26.69 58.58 26.69 63.22 28.51 63.33 28.55 63.22 28.51 58.58 26.69"/>
      <polygon class="cls-3" points="30.13 20.49 31.45 21.07 31.45 21.07 30.13 20.49"/>
      <path class="cls-3" d="M43.25,22.32c-2.84,1.25-6.09,1.25-8.93,0l-2.03-.89-.84-.37-.33.85-.81,2.07c-1.13,2.89-3.42,5.19-6.32,6.32l-2.06.81-.86.34h0s0,0,0,0l.37.84.89,2.03c1.24,2.85,1.24,6.09,0,8.93l-.89,2.03-.37.84h0s0,0,0,0l.86.33,2.07.81c2.89,1.13,5.18,3.42,6.31,6.31l.81,2.07.33.85h0s0,0,0,0l.84-.37,2.03-.89c2.84-1.24,6.08-1.24,8.93,0l2.03.89.84.37h0s0,0,0,0l.33-.85.81-2.07c1.13-2.89,3.42-5.18,6.31-6.31l2.07-.81.86-.33h0s0,0,0,0l-.37-.84-.89-2.03c-1.25-2.84-1.25-6.09,0-8.94l.89-2.03.37-.84-.86-.34-2.06-.81c-2.89-1.13-5.18-3.42-6.32-6.32l-.81-2.07-.33-.85-.84.37-2.04.89Z"/>
      <path class="cls-3" d="M43.24,16.66l.99-.43-.4-1.03-1.94-4.95-1.59-4.06c-.29-.66-.77-.99-1.46-.99h-.09c-.69,0-1.17.33-1.46.99l-1.59,4.06-1.94,4.95-.41,1.03h0s0,0,0,0l.98.43c2.84,1.24,6.08,1.24,8.92,0Z"/>
      <rect class="cls-3" x="29.8" y="18.65" width="5.2" height="0" transform="translate(2.59 41.21) rotate(-67.05)"/>
      <polygon class="cls-3" points="45.67 15.61 44.23 16.23 44.23 16.23 45.67 15.61"/>
      <polygon class="cls-3" points="45.79 20.22 46.13 21.07 48.52 20.02 46.13 21.07 45.79 20.22"/>
      <polygon class="cls-3" points="48.87 14.21 48.8 14.24 45.67 15.61 48.8 14.24 48.87 14.21"/>
      <path class="cls-3" d="M61.15,20.8l1.74-4c.26-.67.15-1.25-.34-1.74,0-.01-.02-.02-.03-.03,0-.01-.02-.02-.03-.03-.49-.49-1.07-.6-1.74-.34l-4,1.74-4.87,2.13-1.02.44.39.99c1.14,2.89,3.42,5.17,6.31,6.31l1,.4h0s0,0,0,0l.44-1.01,2.13-4.87Z"/>
      <polygon class="cls-3" points="49.02 14.25 49.06 14.35 50.89 18.99 50.89 18.99 49.06 14.35 49.02 14.25"/>
      <path class="cls-2" d="M14.35,49.06l3.92,1.55.72.28,1.6-3.66-1.6,3.66.99.39c2.89,1.14,5.17,3.42,6.31,6.31l.39.99,2.3-1,2.46-1.07-.33-.85-.81-2.07c-1.13-2.89-3.42-5.18-6.31-6.31l-2.07-.81-.86-.33h0s0,0,0,0h0s-1.93-.75-1.93-.75l-2.91-1.14h0s-1.04-.41-1.04-.41l-4.94-1.94-4.06-1.59c-.66-.29-.99-.78-.99-1.46,0-.02,0-.03,0-.04,0-.01,0-.03,0-.04,0-.69.33-1.18.99-1.46l4.06-1.6,4.94-1.94,1.04-.4h0s0,0,0,0l-1.99-4.57-.08-.19-4.76,1.87-5.65,2.22c-1.38.55-2.35,1.32-2.9,2.3-.56.99-.84,2.26-.84,3.81s.28,2.82.84,3.81c.55.99,1.53,1.76,2.9,2.3l5.65,2.22,4.77,1.87h0s0,0,0,0h0s.19.07.19.07Z"/>
      <path class="cls-6" d="M63.41,48.98l-.08-.19-1.99-4.57-2.11.83,2.11-.83-.43-.98c-1.24-2.84-1.24-6.08,0-8.92l.43-.98h0s0,0,0,0l-4.61-1.81-.22-.09-.37.84-.89,2.03c-1.25,2.85-1.25,6.09,0,8.94l.89,2.03.37.84h0,0s0,0,0,0l2.08,4.76,2.17-.85-2.17.86.44,1.02,2.13,4.87,1.74,4c.26.66.15,1.25-.34,1.74l-.03.03s-.01.02-.03.03c-.49.49-1.07.6-1.74.34l-4-1.75-4.87-2.12-1.02-.45h0s0,0,0,0l-.42,1.07-1.4,3.57-.04.09-.04.1h0s0,0,0,0l4.7,2.05,5.57,2.43c1.35.59,2.59.73,3.68.42,1.09-.3,2.19-1,3.28-2.1,1.09-1.09,1.8-2.19,2.1-3.28.3-1.09.16-2.33-.43-3.69l-2.42-5.57-2.05-4.69h-.04s.04,0,.04,0Z"/>
      <path class="cls-5" d="M31.81,15.56l-3.03-1.32-.19-.08-.07.19-1.52,3.85-.31.79h0s-.39.99-.39.99c-1.14,2.89-3.42,5.17-6.31,6.31l-1,.39,2.08,4.76.86-.34,2.06-.81c2.89-1.13,5.18-3.42,6.32-6.32l.81-2.07.33-.85-1.32-.58,1.32.58,1.89-4.84h0s0,0,0,0h0s.41-1.03.41-1.03l1.94-4.95,1.59-4.06c.29-.66.77-.99,1.46-.99h.09c.69,0,1.17.33,1.46.99l1.59,4.06,1.94,4.95.4,1.03,1.44-.62,3.13-1.37.07-.03.11-.05-1.87-4.76-2.22-5.65c-.54-1.38-1.31-2.35-2.3-2.9-.99-.56-2.26-.84-3.81-.84s-2.82.28-3.81.84c-.99.55-1.76,1.53-2.3,2.9l-2.23,5.65-1.87,4.76.19.08,3.03,1.32Z"/>
      <path class="cls-6" d="M48.87,14.21l-.07.03-3.14,1.36-1.44.63h0s-.99.43-.99.43c-2.84,1.24-6.07,1.24-8.92,0l-.98-.43-1.9,4.84h0s0,0,0,0l.84.37,2.03.89c2.84,1.25,6.09,1.25,8.93,0l2.04-.89.84-.37-.33-.85.33.85,2.39-1.05,2.37-1.03-1.82-4.64-.04-.1.04.11,1.82,4.64,1.02-.44,4.87-2.13,4-1.74c.67-.26,1.25-.15,1.74.34,0,0,.02.01.03.03,0,0,.02.01.03.03.49.49.6,1.07.34,1.74l-1.74,4-2.13,4.87-.44,1.01,4.64,1.82.1.04.09.03,2.04-4.69,2.43-5.57c.58-1.36.73-2.59.42-3.68-.3-1.09-1.01-2.19-2.1-3.28-1.09-1.1-2.19-1.8-3.28-2.1-1.09-.3-2.33-.16-3.68.42l-5.57,2.43-4.7,2.05h0s-.11.05-.11.05Z"/>
      <path class="cls-1" d="M76.73,34.98c-.55-.99-1.53-1.76-2.9-2.3l-5.65-2.22-4.76-1.87-.05.12.05-.12-.08-.03-.11-.04-4.64-1.82h0s0,0,0,0h0s-1-.39-1-.39c-2.89-1.14-5.17-3.42-6.31-6.31l-.39-.99h0s0,0,0,0l-2.37,1.03-2.39,1.05.33.85.81,2.07c1.13,2.89,3.42,5.19,6.32,6.32l2.06.81.86.34h0s.22.09.22.09l4.62,1.81,1.19-2.73-1.19,2.74,1.03.4,4.94,1.94,4.07,1.6c.66.28.99.77.99,1.46,0,.01,0,.03,0,.04,0,.01,0,.02,0,.04,0,.68-.33,1.17-.99,1.46l-4.07,1.59-4.94,1.94-1.03.4,1.99,4.57.08.19,4.76-1.87,5.65-2.22c1.38-.54,2.35-1.31,2.9-2.3.56-.99.84-2.26.84-3.81s-.28-2.82-.84-3.81Z"/>
      <path class="cls-6" d="M28.77,63.33l3.11-1.36,1.46-.64-1.14-2.92,1.15,2.92.98-.42c2.84-1.24,6.07-1.24,8.92,0l.98.42,1.89-4.83-.84-.37-2.03-.89c-2.85-1.24-6.09-1.24-8.93,0l-2.03.89-.84.37h0s0,0,0,0h0s-2.46,1.07-2.46,1.07l-2.3,1.01h0s-1.02.44-1.02.44l-4.87,2.12-4,1.74c-.67.27-1.25.16-1.74-.33,0,0-.02-.02-.03-.03,0,0-.02-.02-.03-.03-.49-.49-.6-1.07-.34-1.74l1.75-4,2.12-4.88.45-1.01-.72-.28-3.93-1.54-.19-.07-2.05,4.69-2.42,5.57c-.59,1.36-.73,2.59-.43,3.69.31,1.09,1.01,2.19,2.1,3.28,1.09,1.09,2.19,1.79,3.28,2.1,1.09.31,2.33.17,3.68-.42l5.57-2.43,4.69-2.04h0s0,0,0,0h0l.18-.08Z"/>
      <path class="cls-6" d="M14.24,28.77l1.99,4.57,2.34-.92-2.34.92.42.99c1.24,2.84,1.24,6.07,0,8.92l-.42.98,2.91,1.14,1.93.75.37-.84.89-2.03c1.25-2.84,1.25-6.08,0-8.93l-.89-2.03-.37-.84h0s0,0,0,0h0s-2.08-4.76-2.08-4.76h0s0,0,0,0h0s-.44-1.01-.44-1.01l-2.12-4.87-1.75-4c-.26-.67-.15-1.25.34-1.74,0-.01.02-.02.03-.03,0-.01.02-.02.03-.03.49-.49,1.07-.6,1.74-.34l4,1.74,4.87,2.13,1.02.44.31-.78,1.52-3.86.07-.19h0s0,0,0,0l-4.7-2.05-5.57-2.43c-1.35-.58-2.59-.73-3.68-.42-1.09.3-2.19,1-3.28,2.1-1.09,1.09-1.79,2.19-2.1,3.28-.3,1.09-.16,2.32.42,3.68l2.43,5.57,2.04,4.69h0s0,0,0,0h0s.08.19.08.19Z"/>
      <path class="cls-4" d="M48.98,63.41l.04-.1.04-.09,1.41-3.58.42-1.07-2.56-1.12,2.56,1.12.39-.99c1.14-2.89,3.42-5.17,6.31-6.31l1-.39h0s0,0,0,0l-2.08-4.76-.86.33-2.07.81c-2.89,1.13-5.18,3.42-6.31,6.31l-.81,2.07-.33.85h0s0,0,0,0h0s-1.89,4.83-1.89,4.83h0s0,0,0,0h0s-.4,1.03-.4,1.03l-1.94,4.95-1.59,4.06c-.29.66-.77.99-1.46.99-.01,0-.03,0-.04,0-.01,0-.03,0-.04,0-.69,0-1.17-.34-1.46-.99l-1.59-4.06-1.94-4.95-.4-1.03-1.47.64-3.11,1.36-.18.08,1.87,4.77,2.23,5.65c.54,1.38,1.31,2.35,2.3,2.91.99.56,2.26.84,3.81.84s2.82-.27,3.81-.84c.99-.56,1.76-1.53,2.3-2.91l2.22-5.65,1.87-4.77-.09-.04.09.04Z"/>
    </g>
  </g>
</svg>