<?xml version="1.0" encoding="UTF-8"?>
<svg id="Camada_2" data-name="Camada 2" xmlns="http://www.w3.org/2000/svg" viewBox="0 0 2474.23 216.13">
  <defs>
    <style>
      .cls-1 {
        letter-spacing: -.02em;
      }

      .cls-2 {
        font-family: Rawline-Bold, Rawline;
        font-size: 45.94px;
      }

      .cls-2, .cls-3 {
        font-weight: 700;
      }

      .cls-4 {
        fill: #fff;
      }

      .cls-5 {
        letter-spacing: -.03em;
      }

      .cls-3 {
        font-family: Rawline-ExtraBold, Rawline;
        font-size: 138.32px;
      }

      .cls-6 {
        letter-spacing: 0em;
      }

      .cls-7 {
        letter-spacing: 0em;
      }

      .cls-8 {
        letter-spacing: -.03em;
      }

      .cls-9 {
        fill-rule: evenodd;
      }

      .cls-10 {
        fill: #f4f3f4;
      }
    </style>
  </defs>
  <g id="Camada_1-2" data-name="Camada 1">
    <g>
      <g>
        <path class="cls-9" d="M906.68,141.65c-15.03,0-26.77-10.66-26.77-23.87v-45.03h20.17v46.88c0,5.89,5.14,10.63,11.74,10.63,6.22,0,11.77-4.74,11.77-10.63v-46.88h9.51v45.03c0,13.22-11.74,23.87-26.43,23.87M849.78,114.48l-12.48-3.67c-7.68-2.57-13.18-10.26-13.18-18.7,0-11.04,8.81-19.75,19.81-19.75h24.61v8.71h-17.26c-3.3,0-6.22,2.56-6.22,6.26,0,2.2,1.44,4.78,4.01,5.49l12.1,4.04c8.1,2.59,12.48,10.99,12.48,20.55,0,12.1-9.51,22.03-21.65,22.03h-26.04v-9.92h22.39c3.27,0,6.96-3.27,6.96-7.66,0-3.34-2.21-6.25-5.53-7.37M964.35,114.48l-12.51-3.67c-8.09-2.57-13.54-10.26-13.54-18.7,0-11.04,8.74-19.75,19.81-19.75h24.56v8.71h-17.24c-3.32,0-6.24,2.56-6.24,6.26,0,2.2,1.44,4.78,4.05,5.49l12.09,4.04c8.43,2.59,12.87,10.99,12.87,20.55,0,12.1-9.94,22.03-22.07,22.03h-26.04v-9.92h22.38c3.29,0,6.99-3.27,6.99-7.66,0-3.34-1.85-6.25-5.13-7.37"/>
        <path class="cls-9" d="M1148.18,146.39h8.57v54.75c-1.05-5.68-4.26-39.01-3.85-49.68-1.08-1.1-4.72-5.07-4.72-5.07M1084,87.92h0l-9.16-9.33c-12.21.16-51.53-4-64.14-6.21v70.41c63.09,6.22,96.22,7.8,133.17,6.63h.61l-60.48-61.5ZM1084.46,68.29h70.49V0h-70.49v68.29ZM1029.78,72.39c4.68.39,45.93,4,48.69,4l65.32,66.4h83.92v-70.41h-197.93ZM1148.5,153.26s-37.65,2.56-69.67-.34c.65,38.94,5.34,58.95,6.11,63.21h70c-3.34-20.47-5.99-53.53-6.43-62.87"/>
      </g>
      <g>
        <polygon points="1404.81 83.08 1404.81 52.06 1392 75.6 1387.95 75.6 1375.07 52.06 1375.07 83.08 1368.21 83.08 1368.21 39.52 1375.56 39.52 1389.97 66.16 1404.38 39.52 1411.77 39.52 1411.77 83.08 1404.81 83.08"/>
        <rect x="1433.81" y="39.53" width="6.87" height="43.56"/>
        <polygon points="1469.63 52.29 1469.63 83.06 1462.76 83.06 1462.76 39.54 1468.4 39.54 1493.07 71.02 1493.07 39.6 1500 39.6 1500 83.06 1493.96 83.06 1469.63 52.29"/>
        <rect x="1522.06" y="39.53" width="6.87" height="43.56"/>
        <path d="M1576.77,49.77c-.95-1.04-2.54-2.02-4.78-3-2.27-.95-4.6-1.44-6.99-1.44-2.82,0-4.97.52-6.38,1.59-1.41,1.04-2.09,2.51-2.09,4.45,0,.58.06,1.13.21,1.62.19.46.37.89.61,1.26.28.37.64.73,1.13,1.07s.98.61,1.47.86c.49.25,1.17.49,2.02.77.86.28,1.62.49,2.39.68.73.21,1.69.46,2.88.73,1.93.46,3.55.92,4.93,1.38,1.35.46,2.64,1.01,3.92,1.72,1.26.68,2.24,1.44,3,2.3.77.86,1.38,1.87,1.81,3.1.46,1.22.68,2.61.68,4.17,0,1.72-.28,3.31-.83,4.69-.55,1.41-1.29,2.57-2.24,3.52-.98.98-2.12,1.78-3.49,2.42-1.35.64-2.79,1.13-4.35,1.41-1.57.28-3.25.43-5.03.43-3.34,0-6.53-.49-9.63-1.5-3.1-1.01-5.88-2.45-8.37-4.35l3.16-5.92c1.26,1.32,3.31,2.54,6.16,3.77,2.82,1.2,5.76,1.81,8.77,1.81,2.73,0,4.81-.49,6.28-1.44,1.47-.95,2.21-2.33,2.21-4.14,0-.7-.12-1.35-.34-1.93-.21-.58-.58-1.1-1.13-1.59-.52-.46-1.1-.86-1.65-1.2-.58-.34-1.38-.71-2.42-1.04-1.07-.37-2.02-.68-2.88-.92-.86-.25-2.05-.55-3.52-.92-2.3-.61-4.2-1.2-5.7-1.84-1.47-.61-2.82-1.38-3.95-2.27-1.13-.89-1.99-1.96-2.51-3.19-.52-1.22-.77-2.67-.77-4.35,0-2.08.4-3.98,1.23-5.67.8-1.69,1.9-3.1,3.34-4.2,1.41-1.07,3.07-1.93,5-2.51,1.9-.58,3.99-.86,6.25-.86,5.33,0,10.24,1.62,14.71,4.91l-3.13,5.64Z"/>
        <polygon points="1632.7 45.61 1618.24 45.61 1618.24 83.07 1611.28 83.07 1611.28 45.61 1596.78 45.61 1596.78 39.54 1632.7 39.54 1632.7 45.61"/>
        <path d="M1680.65,77v6.07h-29.89v-43.53h29.33v6.07h-22.47v12.35h19.43v5.73h-19.43v13.3h23.02ZM1668.46,35.04l-4.44-1.35,3.52-6.74h6.44l-5.52,8.09Z"/>
        <path d="M1700,83.09v-43.56h18.98c1.9,0,3.68.4,5.4,1.22,1.72.83,3.16,1.9,4.29,3.25,1.16,1.32,2.08,2.85,2.76,4.54.68,1.72,1.01,3.43,1.01,5.15,0,2.97-.77,5.64-2.33,8.03-1.56,2.36-3.62,3.99-6.16,4.78l10.24,16.58h-7.73l-9.47-15.17h-10.12v15.17h-6.87ZM1706.87,61.84h12.05c1.9,0,3.46-.8,4.69-2.39,1.26-1.56,1.87-3.5,1.87-5.76s-.7-4.11-2.12-5.7c-1.38-1.59-3-2.39-4.84-2.39h-11.65v16.25Z"/>
        <rect x="1752.79" y="39.53" width="6.87" height="43.56"/>
        <path d="M1779,61.3c0-2.88.52-5.64,1.59-8.34,1.07-2.7,2.51-5.03,4.35-7.05,1.84-2.02,4.08-3.65,6.68-4.84,2.64-1.23,5.4-1.84,8.34-1.84s5.82.64,8.46,1.93c2.64,1.26,4.84,2.94,6.62,5.03,1.78,2.08,3.16,4.47,4.17,7.11,1.01,2.63,1.53,5.33,1.53,8.06,0,2.88-.52,5.64-1.59,8.34-1.07,2.67-2.51,5.03-4.32,7.02-1.84,2.02-4.05,3.65-6.65,4.84-2.64,1.23-5.4,1.81-8.34,1.81-2.42,0-4.75-.4-6.96-1.2-2.18-.83-4.11-1.93-5.79-3.34-1.66-1.41-3.1-3.06-4.32-4.9-1.22-1.87-2.18-3.89-2.82-6.04-.64-2.18-.95-4.38-.95-6.59M1799.9,77.18c2.11,0,4.08-.46,5.82-1.38,1.81-.92,3.25-2.11,4.38-3.65,1.13-1.5,2.02-3.19,2.67-5.06.61-1.87.92-3.8.92-5.8s-.31-4.04-.98-5.95c-.68-1.9-1.59-3.59-2.76-5.06-1.17-1.47-2.64-2.63-4.38-3.5-1.75-.89-3.65-1.32-5.67-1.32s-4.08.46-5.85,1.38c-1.78.89-3.25,2.12-4.42,3.59-1.17,1.5-2.05,3.19-2.7,5.09-.65,1.87-.95,3.8-.95,5.76,0,2.76.55,5.33,1.66,7.73,1.1,2.39,2.73,4.35,4.9,5.89,2.15,1.5,4.6,2.27,7.36,2.27"/>
        <path d="M1867.54,83.07v-43.53h15.45c3.4,0,6.5.55,9.2,1.69,2.73,1.13,4.96,2.7,6.71,4.66,1.75,1.99,3.07,4.29,3.95,6.9.92,2.61,1.38,5.43,1.38,8.46,0,6.59-1.93,11.86-5.8,15.85-3.86,3.99-9.01,5.98-15.45,5.98h-15.45ZM1882.99,45.61h-8.58v31.39h8.58c3,0,5.58-.7,7.75-2.08,2.15-1.38,3.77-3.25,4.84-5.61,1.1-2.36,1.62-5.06,1.62-8.06,0-4.66-1.26-8.43-3.77-11.31-2.54-2.88-6.01-4.32-10.45-4.32"/>
        <path d="M1934.71,39.52h6.5l16.92,43.56h-7.26l-4.57-11.83h-16.8l-4.56,11.83h-7.3l17.07-43.56ZM1944.95,66.16l-7.02-19.07-7.2,19.07h14.22Z"/>
        <path d="M1735.73,139.85c-.19-.09-.43-.24-.71-.43-.31-.19-.92-.49-1.84-.95-.92-.46-1.81-.86-2.7-1.22-.89-.34-1.9-.64-3.06-.95-1.17-.27-2.24-.43-3.22-.43-2.33,0-3.5.71-3.5,2.15,0,.34.03.61.16.89.09.24.31.49.58.71.28.21.55.43.83.58s.67.34,1.22.52c.58.21,1.04.37,1.44.49.4.12,1.01.31,1.84.55.83.25,1.47.46,1.99.61,1.78.55,3.25,1.07,4.48,1.59,1.22.52,2.42,1.14,3.59,1.9,1.16.74,2.08,1.57,2.79,2.49.7.89,1.26,1.96,1.66,3.25.43,1.26.61,2.7.61,4.29,0,2.02-.31,3.83-.95,5.45-.64,1.6-1.47,2.91-2.54,3.96-1.04,1.04-2.3,1.87-3.74,2.57-1.47.68-2.94,1.13-4.48,1.41-1.53.31-3.16.43-4.84.43-3.13,0-6.44-.46-9.87-1.38-3.43-.95-6.44-2.18-9.07-3.71l5.18-10.48c.18.15.46.31.8.52.37.21,1.07.58,2.18,1.14,1.07.55,2.14,1.04,3.22,1.47,1.04.4,2.3.8,3.74,1.14,1.47.37,2.79.52,4.04.52,2.3,0,3.46-.61,3.46-1.9,0-.49-.15-.92-.46-1.29-.28-.37-.8-.7-1.47-1.01-.7-.31-1.38-.55-2.02-.77-.67-.21-1.56-.49-2.76-.86-1.2-.34-2.18-.64-2.94-.89-3.92-1.32-6.74-2.91-8.46-4.75-1.75-1.87-2.61-4.35-2.61-7.48,0-2.33.46-4.44,1.32-6.34.89-1.9,2.12-3.47,3.62-4.66,1.5-1.2,3.22-2.12,5.15-2.76,1.93-.61,4.02-.95,6.19-.95,4.63,0,10.09,1.56,16.31,4.72l-5.15,9.87Z"/>
        <path d="M1768.39,125.64h13.37l13.86,43.53h-12.14l-2.61-8.52h-11.65l-2.58,8.52h-12.17l13.92-43.53ZM1778.94,152.67l-3.86-15.33-4.05,15.33h7.91Z"/>
        <path d="M1828.89,169.54c-2.73,0-5.18-.37-7.39-1.13-2.21-.77-4.08-1.81-5.58-3.13-1.5-1.32-2.76-2.88-3.77-4.72-1.04-1.84-1.78-3.8-2.24-5.89-.46-2.08-.68-4.32-.68-6.68v-22.34h11.99v22.34c0,1.5.12,2.91.43,4.17.28,1.29.73,2.45,1.32,3.47.58,1.04,1.38,1.84,2.39,2.42,1.01.58,2.18.89,3.52.89s2.54-.31,3.55-.89c1.01-.61,1.84-1.44,2.42-2.48.58-1.04,1.01-2.21,1.32-3.46.28-1.29.43-2.64.43-4.11v-22.34h11.96v22.34c0,3.1-.4,5.95-1.2,8.52-.8,2.58-1.99,4.84-3.55,6.81-1.56,1.96-3.62,3.46-6.16,4.57-2.54,1.1-5.49,1.65-8.77,1.65M1832.57,123.77l-7.36-1.96,3.04-8.71h10.36l-6.04,10.67Z"/>
        <path d="M1867.69,169.19v-43.56h16.74c3.52,0,6.68.55,9.5,1.69,2.82,1.13,5.15,2.7,6.93,4.69,1.78,1.96,3.15,4.26,4.11,6.86.95,2.61,1.41,5.43,1.41,8.46,0,6.59-1.99,11.89-6.01,15.88-3.99,3.99-9.32,5.98-15.94,5.98h-16.74ZM1884.43,136.05h-4.78v22.71h4.78c3.07,0,5.45-1.07,7.2-3.19,1.75-2.12,2.61-4.88,2.61-8.25s-.86-6.13-2.61-8.18c-1.78-2.05-4.17-3.1-7.2-3.1"/>
        <polygon points="1954.89 158.75 1954.89 169.18 1923.87 169.18 1923.87 125.62 1954.34 125.62 1954.34 136.04 1935.82 136.04 1935.82 142.2 1951.64 142.2 1951.64 151.86 1935.82 151.86 1935.82 158.75 1954.89 158.75"/>
      </g>
      <g>
        <path d="M2146.88,51.76h20.17v28.63h-8.96v-6.35c-4.49,4.49-9.66,6.74-15.5,6.74-4.82,0-9.26-1.25-13.3-3.75-4.04-2.5-7.24-5.94-9.59-10.31-2.35-4.38-3.52-9.19-3.52-14.45,0-3.75.69-7.33,2.08-10.75s3.28-6.38,5.67-8.9c2.38-2.51,5.26-4.52,8.63-6.01,3.37-1.49,6.94-2.24,10.72-2.24,5.1,0,9.55,1.08,13.34,3.23,3.79,2.16,6.64,5.12,8.55,8.9l-8.08,5.97c-1.4-2.7-3.37-4.8-5.89-6.3-2.53-1.49-5.29-2.24-8.3-2.24s-5.85.86-8.29,2.56c-2.44,1.71-4.31,3.98-5.61,6.81-1.3,2.83-1.95,5.92-1.95,9.26,0,5.28,1.56,9.71,4.69,13.28s7.05,5.36,11.77,5.36c5.38,0,10.24-2.55,14.58-7.65v-3.87h-11.21v-7.92Z"/>
        <path d="M2172.64,59.91c0-2.86.51-5.57,1.53-8.15s2.44-4.84,4.25-6.79c1.81-1.95,4.09-3.5,6.83-4.65,2.74-1.15,5.73-1.72,8.97-1.72,4.31,0,8.12.99,11.42,2.97,3.3,1.98,5.8,4.57,7.5,7.77,1.7,3.2,2.55,6.73,2.55,10.58,0,2.83-.5,5.53-1.49,8.09s-2.39,4.82-4.19,6.77c-1.8,1.95-4.06,3.5-6.79,4.65-2.73,1.15-5.73,1.72-8.99,1.72-2.63,0-5.09-.38-7.39-1.13-2.3-.75-4.3-1.79-6.01-3.12-1.71-1.33-3.19-2.88-4.44-4.65-1.25-1.77-2.19-3.71-2.81-5.82-.63-2.1-.94-4.28-.94-6.53ZM2194.22,72.23c3.04,0,5.58-1.17,7.63-3.52,2.05-2.35,3.08-5.31,3.08-8.88s-1.03-6.48-3.08-8.8c-2.05-2.32-4.6-3.48-7.63-3.48s-5.59,1.17-7.65,3.52c-2.07,2.35-3.1,5.29-3.1,8.84s1.03,6.52,3.08,8.84c2.05,2.32,4.61,3.48,7.67,3.48Z"/>
        <path d="M2232.38,80.38l-15.16-41.07h10.91l10.33,31.5,10.45-31.5h9.95l-15.04,41.07h-11.44Z"/>
        <path d="M2282.05,81.15c-4.29,0-8.1-.97-11.44-2.91-3.34-1.94-5.88-4.5-7.62-7.67-1.74-3.18-2.6-6.67-2.6-10.47s.87-7.48,2.6-10.74c1.73-3.25,4.27-5.86,7.62-7.83,3.34-1.96,7.18-2.95,11.52-2.95,3.27,0,6.26.57,8.97,1.72,2.72,1.15,4.98,2.7,6.77,4.65,1.8,1.95,3.19,4.19,4.17,6.72.98,2.53,1.47,5.19,1.47,8,0,1.45-.08,2.63-.23,3.52h-31.77c.25,3.11,1.43,5.61,3.52,7.48,2.09,1.88,4.55,2.81,7.39,2.81,2.12,0,4.1-.52,5.95-1.55,1.85-1.03,3.11-2.38,3.77-4.04l8.99,2.53c-1.53,3.21-3.99,5.8-7.37,7.77-3.38,1.96-7.29,2.95-11.73,2.95ZM2271.3,56.54h21.47c-.31-3.09-1.46-5.58-3.46-7.48-2-1.9-4.45-2.85-7.33-2.85s-5.26.96-7.27,2.87c-2.02,1.91-3.15,4.4-3.41,7.46Z"/>
        <path d="M2334.37,48.39c-3.27.05-6.14.69-8.63,1.91-2.49,1.22-4.27,2.97-5.34,5.24v24.84h-10.49v-41.07h9.64v8.76c1.45-2.78,3.31-5,5.57-6.66s4.64-2.54,7.14-2.64c1.1,0,1.8.03,2.1.08v9.53Z"/>
        <path d="M2378.38,80.38h-10.49v-23.04c0-6.33-2.17-9.49-6.51-9.49-2.17,0-4.3.82-6.39,2.45s-3.52,3.66-4.29,6.08v24h-10.49v-41.07h9.49v7.62c1.53-2.6,3.74-4.64,6.64-6.12,2.9-1.48,6.12-2.22,9.66-2.22,1.99,0,3.73.31,5.22.94,1.49.62,2.69,1.43,3.58,2.43.89,1,1.61,2.22,2.16,3.67.55,1.46.92,2.9,1.11,4.34s.29,3.03.29,4.76v25.64Z"/>
        <path d="M2384.93,59.91c0-2.86.51-5.57,1.53-8.15s2.44-4.84,4.25-6.79c1.81-1.95,4.09-3.5,6.83-4.65,2.74-1.15,5.73-1.72,8.97-1.72,4.31,0,8.12.99,11.42,2.97,3.3,1.98,5.8,4.57,7.5,7.77,1.7,3.2,2.55,6.73,2.55,10.58,0,2.83-.5,5.53-1.49,8.09s-2.39,4.82-4.19,6.77c-1.8,1.95-4.06,3.5-6.79,4.65-2.73,1.15-5.73,1.72-8.99,1.72-2.63,0-5.09-.38-7.39-1.13-2.3-.75-4.3-1.79-6.01-3.12-1.71-1.33-3.19-2.88-4.44-4.65-1.25-1.77-2.19-3.71-2.81-5.82-.63-2.1-.94-4.28-.94-6.53ZM2406.51,72.23c3.04,0,5.58-1.17,7.63-3.52,2.05-2.35,3.08-5.31,3.08-8.88s-1.03-6.48-3.08-8.8c-2.05-2.32-4.6-3.48-7.63-3.48s-5.59,1.17-7.65,3.52c-2.07,2.35-3.1,5.29-3.1,8.84s1.03,6.52,3.08,8.84c2.05,2.32,4.61,3.48,7.67,3.48Z"/>
        <path d="M2119.48,174.44v-55.65h37.35v9.49h-26.56v14.35h22.12v8.76h-22.12v23.04h-10.79Z"/>
        <path d="M2180.06,175.2c-4.29,0-8.1-.97-11.44-2.91-3.34-1.94-5.88-4.5-7.62-7.67-1.74-3.18-2.6-6.67-2.6-10.47s.87-7.48,2.6-10.74c1.73-3.25,4.27-5.86,7.62-7.83,3.34-1.96,7.18-2.95,11.52-2.95,3.27,0,6.26.57,8.97,1.72,2.72,1.15,4.98,2.7,6.77,4.65,1.8,1.95,3.19,4.19,4.17,6.72.98,2.53,1.47,5.19,1.47,8,0,1.45-.08,2.63-.23,3.52h-31.77c.25,3.11,1.43,5.61,3.52,7.48,2.09,1.88,4.55,2.81,7.39,2.81,2.12,0,4.1-.52,5.95-1.55,1.85-1.03,3.11-2.38,3.77-4.04l8.99,2.53c-1.53,3.21-3.99,5.8-7.37,7.77-3.38,1.96-7.29,2.95-11.73,2.95ZM2169.31,150.6h21.47c-.31-3.09-1.46-5.58-3.46-7.48-2-1.9-4.45-2.85-7.33-2.85s-5.26.96-7.27,2.87c-2.02,1.91-3.15,4.4-3.41,7.46Z"/>
        <path d="M2205.4,153.89c0-3.9.78-7.48,2.33-10.72,1.56-3.24,3.74-5.8,6.56-7.69,2.82-1.89,5.98-2.83,9.47-2.83,2.93,0,5.62.72,8.06,2.16s4.37,3.36,5.8,5.76v-23.35h10.52v45.47c0,1.12.18,1.92.54,2.39.36.47.98.75,1.88.82v8.53c-1.81.36-3.3.54-4.48.54-1.86,0-3.41-.47-4.65-1.4-1.24-.93-1.93-2.16-2.09-3.69l-.15-2.56c-1.48,2.53-3.51,4.47-6.08,5.84-2.58,1.37-5.31,2.05-8.19,2.05-3.73,0-7.08-.94-10.07-2.83-2.99-1.89-5.31-4.46-6.96-7.71-1.66-3.25-2.49-6.84-2.49-10.77ZM2237.62,159.4v-9.8c-.87-2.27-2.32-4.17-4.34-5.7-2.03-1.53-4.1-2.3-6.22-2.3-3.09,0-5.65,1.24-7.69,3.73-2.04,2.49-3.06,5.43-3.06,8.82s1.08,6.3,3.23,8.63c2.16,2.33,4.87,3.5,8.13,3.5,2.04,0,4.04-.66,5.99-1.97,1.95-1.31,3.27-2.95,3.96-4.92Z"/>
        <path d="M2277.5,175.2c-4.29,0-8.1-.97-11.44-2.91-3.34-1.94-5.88-4.5-7.62-7.67-1.74-3.18-2.6-6.67-2.6-10.47s.87-7.48,2.6-10.74c1.73-3.25,4.27-5.86,7.62-7.83,3.34-1.96,7.18-2.95,11.52-2.95,3.27,0,6.26.57,8.97,1.72,2.72,1.15,4.98,2.7,6.77,4.65,1.8,1.95,3.19,4.19,4.17,6.72.98,2.53,1.47,5.19,1.47,8,0,1.45-.08,2.63-.23,3.52h-31.77c.25,3.11,1.43,5.61,3.52,7.48,2.09,1.88,4.55,2.81,7.39,2.81,2.12,0,4.1-.52,5.95-1.55,1.85-1.03,3.11-2.38,3.77-4.04l8.99,2.53c-1.53,3.21-3.99,5.8-7.37,7.77-3.38,1.96-7.29,2.95-11.73,2.95ZM2266.75,150.6h21.47c-.31-3.09-1.46-5.58-3.46-7.48-2-1.9-4.45-2.85-7.33-2.85s-5.26.96-7.27,2.87c-2.02,1.91-3.15,4.4-3.41,7.46Z"/>
        <path d="M2329.82,142.44c-3.27.05-6.14.69-8.63,1.91-2.49,1.22-4.27,2.97-5.34,5.24v24.84h-10.49v-41.07h9.64v8.76c1.45-2.78,3.31-5,5.57-6.66s4.64-2.54,7.14-2.64c1.1,0,1.8.03,2.1.08v9.53Z"/>
        <path d="M2332.61,162.31c0-3.98,1.63-7.2,4.9-9.66,3.27-2.46,7.51-3.69,12.74-3.69,3.93,0,7.22.55,9.87,1.65v-2.18c0-2.63-.77-4.64-2.32-6.05s-3.83-2.11-6.87-2.11c-2.2,0-4.29.38-6.28,1.13-1.99.75-4.17,1.92-6.54,3.5l-3.41-6.89c5.49-3.57,11.26-5.36,17.34-5.36s10.43,1.47,13.68,4.4c3.25,2.93,4.88,7.12,4.88,12.55v13.09c0,1.12.19,1.92.57,2.39.38.47,1.03.75,1.95.82v8.53c-1.76.36-3.25.54-4.48.54-2.02,0-3.58-.44-4.69-1.32-1.11-.88-1.79-2.06-2.05-3.54l-.23-2.11c-1.76,2.27-3.97,4.04-6.64,5.3-2.67,1.26-5.39,1.89-8.17,1.89-4.11,0-7.51-1.22-10.22-3.67-2.71-2.45-4.06-5.52-4.06-9.22ZM2358.18,164.41c1.3-1.3,1.95-2.5,1.95-3.6v-4.17c-2.68-1.1-5.42-1.65-8.23-1.65s-5,.59-6.74,1.78c-1.74,1.19-2.6,2.74-2.6,4.65,0,1.66.66,3.09,1.99,4.31,1.33,1.21,3.1,1.82,5.32,1.82,1.56,0,3.08-.29,4.57-.86,1.49-.57,2.74-1.33,3.73-2.28Z"/>
        <path d="M2380.33,117.22h10.49v44.05c0,1.81.29,3.06.88,3.75.59.69,1.47,1.03,2.64,1.03,1.68,0,3.33-.37,4.94-1.11l1.42,8c-1.38.64-3,1.15-4.86,1.53s-3.58.57-5.17.57c-3.27,0-5.8-.88-7.62-2.64-1.81-1.76-2.72-4.25-2.72-7.46v-47.72Z"/>
      </g>
    </g>
    <g>
      <g>
        <g>
          <g>
            <g>
              <path d="M29.33,67.89h-1.74c-5.4,0-9.77,4.38-9.77,9.77v10.68h11.51v-20.46Z"/>
              <path d="M29.49,131.95h-1.74c-5.4,0-9.77-4.38-9.77-9.77v-10.68s11.51,0,11.51,0v20.46Z"/>
              <path d="M61.53,131.33v.41l-10.31.07-5,.03-2.52.02-11.01.07-3.2.02-.02-3.24h0s-.11-17.22-.11-17.22l-.15-23.15-.12-18.17h0s-.02-2.28-.02-2.28h.26s2.05-.02,2.05-.02l14.84-.1h.03l7.43-.05h1.6c-1.71,1.3-3.3,2.75-4.75,4.33-.54.59-1.07,1.19-1.57,1.82-1.02,1.25-1.96,2.57-2.81,3.95-3.55,5.74-5.59,12.51-5.59,19.75s2.11,14.2,5.75,20l5.16,6.49c.24.24.48.48.73.71,2.75,2.62,5.89,4.83,9.33,6.54Z"/>
            </g>
            <g>
              <path d="M9.59,90.14v.9h0c2.32,0,4.5.9,6.14,2.54,1.64,1.64,2.54,3.82,2.54,6.14,0,2.32-.9,4.5-2.54,6.14-1.64,1.64-3.82,2.54-6.14,2.54s-4.5-.9-6.14-2.54c-3.39-3.39-3.39-8.9,0-12.28,1.64-1.64,3.82-2.54,6.14-2.54v-.9M9.59,90.14c-2.45,0-4.91.94-6.78,2.81-3.74,3.74-3.74,9.82,0,13.56,1.87,1.87,4.33,2.81,6.78,2.81s4.91-.94,6.78-2.81c3.74-3.74,3.74-9.82,0-13.56-1.87-1.87-4.33-2.81-6.78-2.81h0Z"/>
              <path d="M51.48,124.08l-7.78,7.78-11.01.07-3.2-3.2-.02-.02h0s-9.33-9.33-9.33-9.33c-.87-2.59-1.55-5.23-2.07-7.89-.04-.17-.07-.34-.1-.52.54-.4,1.05-.84,1.54-1.33,5.47-5.47,5.47-14.37,0-19.84-.53-.53-1.1-1.01-1.69-1.44v-.02c.54-3.12,1.31-6.2,2.32-9.22l8.95-8.94h0s2.29-2.3,2.29-2.3l14.84-.1h.03l4.28,4.28c-.54.59-1.07,1.19-1.57,1.82-1.02,1.25-1.96,2.57-2.81,3.95-3.55,5.74-5.59,12.51-5.59,19.75s2.11,14.2,5.75,20l5.16,6.49Z"/>
            </g>
          </g>
          <g>
            <g>
              <path d="M127.3,131.65h1.74c5.4,0,9.77-4.38,9.77-9.77v-10.68h-11.51v20.46Z"/>
              <path d="M127.15,67.59h1.74c5.4,0,9.77,4.38,9.77,9.77v10.68s-11.51,0-11.51,0v-20.46Z"/>
              <path d="M127.57,131.64h-.26s-2.05.01-2.05.01l-14.88.1h-.1l-7.33.05-5.61.04-3.62.02c4.47-2.03,8.48-4.91,11.81-8.43.83-.88,1.62-1.79,2.36-2.75h0c.9-1.15,1.73-2.35,2.49-3.61,3.45-5.68,5.43-12.35,5.43-19.48s-2.05-14-5.59-19.74c-.94-1.52-1.98-2.96-3.12-4.33-.27-.33-.55-.65-.83-.96-1.57-1.76-3.29-3.36-5.16-4.8l4.3-.03,4.87-.03,2.66-.02,11.01-.07,3.2-.02.02,3.24h0s.11,17.22.11,17.22h0s.15,23.15.15,23.15l.12,18.17.02,2.28Z"/>
            </g>
            <g>
              <path d="M147.05,91.13h0c2.32,0,4.5.9,6.14,2.54,3.39,3.39,3.39,8.9,0,12.28-1.64,1.64-3.82,2.54-6.14,2.54s-4.5-.9-6.14-2.54c-1.64-1.64-2.54-3.82-2.54-6.14,0-2.32.9-4.5,2.54-6.14,1.64-1.64,3.82-2.54,6.14-2.54M147.05,90.22c-2.45,0-4.91.94-6.78,2.81-3.75,3.74-3.74,9.82,0,13.56,1.87,1.87,4.33,2.81,6.78,2.81s4.91-.94,6.78-2.81c3.74-3.74,3.74-9.82,0-13.56-1.87-1.87-4.33-2.81-6.78-2.81h0Z"/>
              <path d="M138.82,111.18s0,0,0,.01c-.54,3.12-1.31,6.2-2.32,9.22l-11.24,11.24-14.88.1-.1-.1-6.03-6.03c.54-.62,1.06-1.26,1.56-1.91.75-.98,1.44-2,2.08-3.03h0c.9-1.15,1.73-2.35,2.49-3.61,3.45-5.68,5.43-12.35,5.43-19.48s-2.05-14-5.59-19.74c-.94-1.52-1.98-2.96-3.12-4.33l5.84-5.84,11.01-.07,3.2,3.2.02.02h0s9.33,9.33,9.33,9.33c.87,2.59,1.55,5.23,2.07,7.89h0c.03.17.07.35.1.52-.54.4-1.05.84-1.54,1.33-5.47,5.47-5.47,14.37,0,19.84.53.53,1.1,1.01,1.69,1.44Z"/>
            </g>
          </g>
          <g>
            <g>
              <path d="M110.2,145.13v1.74c0,5.4-4.38,9.77-9.77,9.77h-10.68s0-11.51,0-11.51h20.46Z"/>
              <path d="M64.03,144.98l-.24.11-2.26,1.05v-1.16h-15.39v1.74c0,5.4,4.38,9.77,9.77,9.77h10.68v-11.51h-2.56Z"/>
              <path d="M52.2,124.79c2.75,2.62,5.89,4.83,9.33,6.54v13.75l-12.15-.08h0l-3.24-.02.02-3.2.06-9.94v-1.07s.02-1.45.02-1.45l.04-6.07.04-5.66,5.16,6.49c.24.24.48.48.73.71Z"/>
              <path d="M110.37,117.07l-.02,3.71-.05,7.43-.02,3.45v.1l-.07,11.33v2.05s-.02.26-.02.26l-2.28-.02h0l-18.17-.12h0l-23.15-.15-2.8-.02.24-.11,23.63-10.98c2.09-.54,4.11-1.26,6.05-2.14,4.47-2.03,8.48-4.91,11.81-8.43.83-.88,1.62-1.79,2.36-2.75h0c.9-1.15,1.73-2.35,2.49-3.61Z"/>
            </g>
            <g>
              <path d="M78.36,156.19c2.32,0,4.5.9,6.14,2.54,3.39,3.39,3.39,8.9,0,12.28-1.64,1.64-3.82,2.54-6.14,2.54s-4.5-.9-6.14-2.54c-3.39-3.39-3.39-8.9,0-12.28,1.64-1.64,3.82-2.54,6.14-2.54M78.36,155.29c-2.45,0-4.91.94-6.78,2.81-3.74,3.74-3.74,9.82,0,13.56,1.87,1.87,4.33,2.81,6.78,2.81s4.91-.94,6.78-2.81c3.74-3.74,3.74-9.82,0-13.56-1.87-1.87-4.33-2.81-6.78-2.81h0Z"/>
              <path d="M105.52,123.43c-3.33,3.52-7.34,6.41-11.81,8.43-1.93.88-3.95,1.6-6.05,2.14l-23.63,10.98-.24.11-2.26,1.05v-14.81c-3.44-1.7-6.58-3.91-9.33-6.54l-5.98,5.98v1.07s-.07,9.94-.07,9.94l3.2,3.2.02.02h0l9.32,9.33c2.58.86,5.2,1.54,7.85,2.06.01,0,.02,0,.04,0,.17.04.34.07.52.1.4-.54.84-1.05,1.33-1.54,5.47-5.47,14.37-5.47,19.84,0,.53.53,1.01,1.1,1.44,1.69,0,0,0,0,.01,0,3.12-.54,6.2-1.31,9.23-2.32l11.24-11.24.07-11.33v-.1l.02-3.45-4.78-4.78Z"/>
            </g>
          </g>
          <g>
            <g>
              <path d="M50.78,38.21h11.51v20.46h-4.58c-3.83,0-6.93-3.11-6.93-6.93v-13.53h0Z" transform="translate(104.97 -8.1) rotate(90)"/>
              <path d="M101.31,38.36h4.58v20.46h-11.51v-13.53c0-3.83,3.11-6.93,6.93-6.93Z" transform="translate(148.73 -51.55) rotate(90)"/>
              <path d="M110.37,54.35l-.02,3.2-.07,10.15v.86s-.02,1.8-.02,1.8l-.04,5.73v1.76c-.95-1.52-1.99-2.96-3.13-4.33-.27-.33-.55-.65-.83-.96-1.57-1.76-3.29-3.36-5.16-4.8-6.35-4.89-14.3-7.79-22.93-7.79s-16.55,2.89-22.89,7.76c-1.71,1.31-3.3,2.76-4.75,4.34-.54.59-1.07,1.19-1.57,1.82-1.02,1.25-1.96,2.57-2.81,3.95l.04-6.72.02-3.33.07-11.55v-2.05s.01-.26.01-.26l2.28.02,18.17.12,23.15.15h0l17.22.11,3.24.02Z"/>
            </g>
            <g>
              <path d="M78.14,25.77c2.32,0,4.5.9,6.14,2.54,3.39,3.39,3.39,8.9,0,12.28-1.64,1.64-3.82,2.54-6.14,2.54s-4.5-.9-6.14-2.54c-1.64-1.64-2.54-3.82-2.54-6.14s.9-4.5,2.54-6.14c1.64-1.64,3.82-2.54,6.14-2.54M78.14,24.86c-2.45,0-4.91.94-6.78,2.81-3.74,3.74-3.74,9.82,0,13.56,1.87,1.87,4.33,2.81,6.78,2.81s4.91-.94,6.78-2.81c3.74-3.74,3.74-9.82,0-13.56-1.87-1.87-4.33-2.81-6.78-2.81h0Z"/>
              <path d="M110.35,57.55l-.07,10.15v.86s-4.01,4-4.01,4c-1.57-1.76-3.29-3.36-5.16-4.8-6.35-4.89-14.3-7.79-22.93-7.79s-16.55,2.89-22.89,7.76c-1.71,1.31-3.3,2.76-4.75,4.34-.54.59-1.07,1.19-1.57,1.82l-2.77-2.76.02-3.33.07-11.55,11.24-11.24c3.02-1.01,6.1-1.78,9.22-2.32h0s0,0,.01,0c.43.59.91,1.16,1.44,1.69,5.47,5.47,14.37,5.47,19.84,0,.49-.49.93-1,1.33-1.54.17.03.34.07.51.1h0c2.66.52,5.3,1.2,7.89,2.07l9.33,9.33.02.02,3.2,3.2Z"/>
            </g>
          </g>
        </g>
        <polygon class="cls-4" points="67.11 156.5 66.52 156.49 66.59 156.26 67.11 156.5"/>
      </g>
      <rect class="cls-10" x="138.43" y="87.92" width=".23" height=".64"/>
      <text class="cls-2" transform="translate(165.56 173.59)"><tspan x="0" y="0">O</tspan><tspan class="cls-7" x="34.72" y="0">u</tspan><tspan x="63" y="0">vidoria-Ge</tspan><tspan class="cls-6" x="293.22" y="0">r</tspan><tspan x="310.85" y="0">a</tspan><tspan class="cls-8" x="337.2" y="0">l</tspan><tspan x="350.53" y="0" xml:space="preserve"> do SUS</tspan></text>
      <path class="cls-9" d="M263.68,83.67c-2.89,16.45-13.7,30.17-28.35,37.11l-.82.38-37.8,17.56v-33.25c5.02,2.78,10.8,4.37,16.95,4.37,16.29,0,29.97-11.11,33.89-26.17h16.14Z"/>
      <text class="cls-3" transform="translate(163.32 123.8)"><tspan class="cls-1" x="0" y="0">O</tspan><tspan class="cls-5" x="101.63" y="0">u</tspan><tspan class="cls-1" x="184.49" y="0">vSUS</tspan></text>
    </g>
  </g>
</svg>